<svg version="1" xmlns="http://www.w3.org/2000/svg" width="933.333" height="933.333" viewBox="0 0 700.000000 700.000000"><path d="M496.5.7c-34.9 4.5-66.9 31-78.6 65.2-1.1 3.1-2.2 6.7-2.4 8.1-.3 1.4-.8 3.6-1.2 5-.4 1.4-.9 60.5-1 131.5-.3 96.9-.1 129.6.8 131.8 2.2 5.2 4.6 5.7 29.6 5.7h22.8l.1 160.3.1 160.2 2.2 5.8c4.4 11.2 14.5 20.7 25.9 24 6.8 2.1 16 1.5 23.8-1.4 8.1-3 18.1-13 21.5-21.4l2.4-6V13.4l-2.7-4.1c-1.5-2.2-4.4-5.1-6.5-6.4C529.8.7 528.5.5 514.5.4c-8.2 0-16.3.1-18 .3zM168.4 17.9c-4.4 2-7.8 5.7-10 11-2.1 5.1-2.1 166.5.1 171.7 1.9 4.5 19.3 21.9 31 30.9 10.5 8.2 27.3 19.5 28.9 19.5.8 0 1.1 56.5 1.1 202.2-.1 165.8.1 203.4 1.2 208.3 3.4 14.8 15.7 26.9 30.2 29.5 16 2.9 31.4-4.4 39.9-18.9 5.4-9.2 5.2-1.7 5.2-195.1V274.5l.1-23 5.6-3.4c16.6-10.1 45.1-38.8 48-48.5.5-1.8.9-37.7.8-86.1l-.1-83-2.4-4.2c-6-10.8-19.7-13.5-28.7-5.8-7.9 6.8-7.5 2.6-7.6 77.1 0 51-.3 67.1-1.3 69.9-2.8 8.2-11.3 13.3-20.4 12.2-6.2-.7-10.3-3.5-14.1-9.5l-2.8-4.5-.1-67.5V30.7l-2.3-4c-1.2-2.2-3.9-5.4-6-7.1-3.5-2.8-4.6-3.1-10.6-3.1-5.8 0-7.4.4-10.8 2.8-2.2 1.5-5 4.6-6.3 7l-2.4 4.2-.2 65.5c-.1 36-.2 66.7-.3 68.1-.2 4.3-5.6 11.3-10.7 13.8-7.6 3.8-18 1.6-23.1-4.9-4.5-5.6-4.4-4.3-4.6-76l-.2-67.8-3-4.3c-5.7-8.1-15.5-10.9-24.1-7z"/></svg>